# xmcd CD database file
#
# Track frame offsets:
#	150
#	14327
#	26386
#	37182
#	51359
#	64256
#	77231
#	90580
#	105026
#	117776
#	131877
#	147402
#	164416
#	178892
#	193068
#	206643
#	220294
#	231307
#	245433
#	257356
#
# Disc length: 3747 seconds
#
# Revision: 2
# Processed by: cddbd v1.5.2PL0 Copyright (c) Steve Scherf et al.
# Submitted via: CDex 1.70beta2
#
DISCID=220ea114
DTITLE=Art Pepper - The Ultimate Jazz Archive Set 29
DYEAR=2005
DGENRE=Jazz
TTITLE0=The Count On Rush Street
TTITLE1=Pooch Mcgooch
TTITLE2=Brown Gold
TTITLE3=Holiday Flight
TTITLE4=Surf Ride
TTITLE5=Tickle Toe
TTITLE6=Chili Pepper
TTITLE7=Suzy The Poodle
TTITLE8=Straight Life
TTITLE9=Cinnamon
TTITLE10=Thyme Time
TTITLE11=The Way You Look Tonight
TTITLE12=Nutmeg
TTITLE13=Art's Oregano
TTITLE14=Over The Rainbow
TTITLE15=Popo
TTITLE16=Didi
TTITLE17=Sam And The Lady
TTITLE18=Apropos
TTITLE19=Art Pepper
EXTD=YEAR: 2005
EXTT0=
EXTT1=
EXTT2=
EXTT3=
EXTT4=
EXTT5=
EXTT6=
EXTT7=
EXTT8=
EXTT9=
EXTT10=
EXTT11=
EXTT12=
EXTT13=
EXTT14=
EXTT15=
EXTT16=
EXTT17=
EXTT18=
EXTT19=
PLAYORDER=
